<?xml version="1.0" encoding="UTF-8"?>
<svg xmlns="http://www.w3.org/2000/svg" width="550" height="500">
<line x1="50" y1="450" x2="450" y2="450" stroke="black" stroke-width="2" />
<line x1="50" y1="450" x2="50" y2="460" stroke="black" />
<text x="50" y="480" font-size="12">0.0</text>
<line x1="90" y1="450" x2="90" y2="460" stroke="black" />
<text x="90" y="480" font-size="12">0.3</text>
<line x1="130" y1="450" x2="130" y2="460" stroke="black" />
<text x="130" y="480" font-size="12">0.6</text>
<line x1="170" y1="450" x2="170" y2="460" stroke="black" />
<text x="170" y="480" font-size="12">0.9</text>
<line x1="210" y1="450" x2="210" y2="460" stroke="black" />
<text x="210" y="480" font-size="12">1.2</text>
<line x1="250" y1="450" x2="250" y2="460" stroke="black" />
<text x="250" y="480" font-size="12">1.5</text>
<line x1="290" y1="450" x2="290" y2="460" stroke="black" />
<text x="290" y="480" font-size="12">1.8</text>
<line x1="50" y1="50" x2="50" y2="450" stroke="black" stroke-width="2" />
<line x1="40" y1="450" x2="50" y2="450" stroke="black" />
<text x="10" y="455" font-size="12">0.0</text>
<line x1="40" y1="410" x2="50" y2="410" stroke="black" />
<text x="10" y="415" font-size="12">0.4</text>
<line x1="40" y1="370" x2="50" y2="370" stroke="black" />
<text x="10" y="375" font-size="12">0.8</text>
<line x1="40" y1="330" x2="50" y2="330" stroke="black" />
<text x="10" y="335" font-size="12">1.2</text>
<line x1="40" y1="290" x2="50" y2="290" stroke="black" />
<text x="10" y="295" font-size="12">1.6</text>
<line x1="40" y1="250" x2="50" y2="250" stroke="black" />
<text x="10" y="255" font-size="12">2.0</text>
<line x1="40" y1="210" x2="50" y2="210" stroke="black" />
<text x="10" y="215" font-size="12">2.4</text>
<line x1="40" y1="170" x2="50" y2="170" stroke="black" />
<text x="10" y="175" font-size="12">2.8</text>
<text x="480" y="480" text-anchor="middle">X-Achse</text>
<text x="200" y="250" transform="rotate(-90 20,250)" text-anchor="middle">Y-Achse</text>
<circle cx="183" cy="350" r="3" fill="blue" />
<text x="193" y="350" font-size="8">P1 (1.0, 1.0)</text>
<circle cx="316" cy="250" r="3" fill="blue" />
<text x="326" y="250" font-size="8">P2 (2.0, 2.0)</text>
<circle cx="450" cy="50" r="3" fill="blue" />
<text x="460" y="50" font-size="8">P3 (3.0, 4.0)</text>
<line x1="50" y1="516.666667" x2="450.000000" y2="50.000000" stroke="red" stroke-width="2" />
</svg>
