<?xml version="1.0" encoding="UTF-8"?>
<svg xmlns="http://www.w3.org/2000/svg" width="1000" height="1000">
<line x1="50" y1="950" x2="950" y2="950" stroke="black" stroke-width="2" />
<line x1="50" y1="950" x2="50" y2="960" stroke="black" />
<text x="50" y="980" font-size="12">0.0</text>
<line x1="140" y1="950" x2="140" y2="960" stroke="black" />
<text x="140" y="980" font-size="12">1.0</text>
<line x1="230" y1="950" x2="230" y2="960" stroke="black" />
<text x="230" y="980" font-size="12">2.0</text>
<line x1="320" y1="950" x2="320" y2="960" stroke="black" />
<text x="320" y="980" font-size="12">3.0</text>
<line x1="410" y1="950" x2="410" y2="960" stroke="black" />
<text x="410" y="980" font-size="12">4.0</text>
<line x1="500" y1="950" x2="500" y2="960" stroke="black" />
<text x="500" y="980" font-size="12">5.0</text>
<line x1="590" y1="950" x2="590" y2="960" stroke="black" />
<text x="590" y="980" font-size="12">6.0</text>
<line x1="680" y1="950" x2="680" y2="960" stroke="black" />
<text x="680" y="980" font-size="12">7.0</text>
<line x1="770" y1="950" x2="770" y2="960" stroke="black" />
<text x="770" y="980" font-size="12">8.0</text>
<line x1="860" y1="950" x2="860" y2="960" stroke="black" />
<text x="860" y="980" font-size="12">9.0</text>
<line x1="950" y1="950" x2="950" y2="960" stroke="black" />
<text x="950" y="980" font-size="12">10.0</text>
<line x1="50" y1="950" x2="50" y2="50" stroke="black" stroke-width="2" />
<line x1="40" y1="950" x2="50" y2="950" stroke="black" />
<text x="10" y="955" font-size="12">0.0</text>
<line x1="40" y1="860" x2="50" y2="860" stroke="black" />
<text x="10" y="865" font-size="12">1.0</text>
<line x1="40" y1="770" x2="50" y2="770" stroke="black" />
<text x="10" y="775" font-size="12">2.0</text>
<line x1="40" y1="680" x2="50" y2="680" stroke="black" />
<text x="10" y="685" font-size="12">3.0</text>
<line x1="40" y1="590" x2="50" y2="590" stroke="black" />
<text x="10" y="595" font-size="12">4.0</text>
<line x1="40" y1="500" x2="50" y2="500" stroke="black" />
<text x="10" y="505" font-size="12">5.0</text>
<line x1="40" y1="410" x2="50" y2="410" stroke="black" />
<text x="10" y="415" font-size="12">6.0</text>
<line x1="40" y1="320" x2="50" y2="320" stroke="black" />
<text x="10" y="325" font-size="12">7.0</text>
<line x1="40" y1="230" x2="50" y2="230" stroke="black" />
<text x="10" y="235" font-size="12">8.0</text>
<line x1="40" y1="140" x2="50" y2="140" stroke="black" />
<text x="10" y="145" font-size="12">9.0</text>
<line x1="40" y1="50" x2="50" y2="50" stroke="black" />
<text x="10" y="55" font-size="12">10.0</text>
<text x="910" y="995" text-anchor="middle">X-Achse</text>
<text x="200" y="275" transform="rotate(-90 20,275)" text-anchor="middle">Y-Achse</text>
<circle cx="140" cy="860" r="3" fill="blue" />
<text x="150" y="860" font-size="8">P1 (1.0, 1.0)</text>
<circle cx="230" cy="770" r="3" fill="blue" />
<text x="240" y="770" font-size="8">P2 (2.0, 2.0)</text>
<circle cx="320" cy="590" r="3" fill="blue" />
<text x="330" y="590" font-size="8">P3 (3.0, 4.0)</text>
<line x1="50" y1="1010.000000" x2="690.000000" y2="50.000000" stroke="red" stroke-width="2" />
</svg>
